<svg xmlns="http://www.w3.org/2000/svg" width="550" height="550" enable-background="new 0 0 550 550" viewBox="0 0 550 550"><path fill="none" stroke="#000" stroke-linejoin="round" stroke-miterlimit="10" stroke-width="20" d="M19,96.244v144.015
	c0,27.592,22.367,49.959,49.959,49.959h412.082c27.592,0,49.959-22.367,49.959-49.959V96.244H19z"/><rect width="404" height="35.629" x="73" y="254.588" fill="none" stroke="#000" stroke-linejoin="round" stroke-miterlimit="10" stroke-width="20"/><circle cx="408.651" cy="207.349" r="10.125" stroke="#000" stroke-miterlimit="10"/><circle cx="441.849" cy="207.161" r="10.125" stroke="#000" stroke-miterlimit="10"/><circle cx="476.349" cy="207.161" r="10.125" stroke="#000" stroke-miterlimit="10"/><line x1="205.5" x2="344.5" y1="207.255" y2="207.255" fill="none" stroke="#000" stroke-linecap="round" stroke-linejoin="round" stroke-miterlimit="10" stroke-width="20"/><path fill="none" stroke="#000" stroke-linecap="round" stroke-linejoin="round" stroke-miterlimit="10" stroke-width="20" d="M116 338c0 16.125-14 16.125-14 32.249 0 16.124 14 16.124 14 32.247 0 16.126-14 16.126-14 32.252s14 16.126 14 32.252M196.163 338c0 16.125-14 16.125-14 32.249 0 16.124 14 16.124 14 32.247 0 16.126-14 16.126-14 32.252s14 16.126 14 32.252M276.326 338c0 16.125-14 16.125-14 32.249 0 16.124 14 16.124 14 32.247 0 16.126-14 16.126-14 32.252s14 16.126 14 32.252M356.488 338c0 16.125-14 16.125-14 32.249 0 16.124 14 16.124 14 32.247 0 16.126-14 16.126-14 32.252s14 16.126 14 32.252M436.651 338c0 16.125-14 16.125-14 32.249 0 16.124 14 16.124 14 32.247 0 16.126-14 16.126-14 32.252s14 16.126 14 32.252"/></svg>