<svg xmlns="http://www.w3.org/2000/svg" width="2000" height="2000" enable-background="new 0 0 2000 2000" viewBox="0 0 2000 2000"><path d="M1724.5713,1471.7295c-0.1416-0.1289-0.2852-0.2563-0.4297-0.3823l-523.2998-456.3113l87.2969-100.5527
		c33.1885,13.4434,69.5996,20.4775,106.6064,20.4788c0.0049,0,0.0049,0,0.0098,0c40.5947,0,80.665-8.0864,119.0879-24.0327
		c39.6523-16.4568,75.3975-40.4399,106.2422-71.2842l77.0566-77.0588c57.6885-57.6899,91.4326-132.8894,95.0176-211.7463
		c1.7568-38.6475-3.8447-76.0356-16.6494-111.1257c-13.3584-36.6077-33.9639-69.0017-61.2451-96.2822
		c-50.4307-50.4314-119.2568-78.2051-193.7998-78.2051c-40.6045,0-80.6777,8.0874-119.1074,24.0374
		c-39.6553,16.459-75.4023,40.4448-106.249,71.292l-77.0566,77.0564c-47.6602,47.6594-78.9668,107.0547-90.5352,171.7651
		c-9.8232,54.9463-4.2207,110.947,15.7051,160.1821l-112.1943,97.4031L880.3984,735.615
		c18.7456-51.0588,21.8628-110.0125,8.5791-168.522c-15.3994-67.8293-50.9678-131.1108-102.8599-183.0029L618.3442,216.3167
		c-11.7158-11.7158-30.7109-11.7158-42.4268,0c-11.7153,11.7156-11.7153,30.7107,0,42.4263l167.7734,167.7737
		c87.2212,87.2207,117.4839,212.4678,73.5938,304.5786c-5.79,12.1504-2.7783,26.6697,7.3657,35.5154L985.2803,906.679
		l-83.7446,72.7039L766.6128,824.6499c-8.8457-10.1445-23.3657-13.1565-35.5166-7.366
		c-92.1084,43.8918-217.3579,13.6328-304.5801-73.5879L258.7427,575.9207c-11.7153-11.7158-30.7109-11.7156-42.4263-0.0002
		c-11.7158,11.7156-11.7158,30.7107-0.0005,42.4265l167.7739,167.7756c51.8926,51.8916,115.1743,87.4592,183.0034,102.8579
		c58.5098,13.2832,117.4644,10.1648,168.5234-8.5828l120.6108,138.3201l-531.2241,461.1899
		c-0.1221,0.106-0.2432,0.2129-0.3638,0.3208c-36.9482,33.1406-58.0254,78.2476-59.3491,127.0117
		c-1.3232,48.7603,17.2744,94.9404,52.3706,130.0356l2.7656,2.7651c33.8115,33.8096,78.3042,52.4297,125.2832,52.4297
		c49.8672,0,97.8911-21.6558,131.7578-59.4146c0.1079-0.1201,0.2148-0.2412,0.3208-0.3633l449.522-517.7778l444.0371,509.2236
		c0.126,0.1445,0.2539,0.2876,0.3828,0.4297c37.8936,41.811,90.1074,66.5391,143.252,67.8442
		c1.5049,0.0371,3.001,0.0552,4.499,0.0552c46.0732,0,88.8242-17.4546,120.7998-49.4307l2.7607-2.7622
		c33.0107-33.0103,50.5459-77.5059,49.373-125.2905C1791.1113,1561.8403,1766.3828,1509.626,1724.5713,1471.7295z
		 M532.6528,1693.1606c-22.8184,25.3506-53.6865,39.3101-86.9429,39.3101c-30.9526,0-60.3789-12.3789-82.8599-34.8599
		l-2.7661-2.7646c-23.3228-23.3223-35.6875-53.8569-34.8154-85.9785c0.8696-32.0483,14.8105-61.8057,39.2593-83.8164
		l553.5884-480.6062c0.0669-0.0571,0.1357-0.1101,0.2021-0.168c0.0503-0.0439,0.0967-0.0906,0.147-0.1348l281.0298-243.9802
		c10.4395-9.0632,13.334-24.0867,7.0088-36.3794c-45.96-89.3259-23.7656-206.0054,53.9736-283.7434l77.0566-77.0569
		c49.415-49.4148,116.0898-77.7556,182.9307-77.7556c58.5166,0,112.2754,21.5327,151.374,60.6313
		c87.4443,87.4456,79.7627,237.4126-17.124,334.302l-77.0566,77.0586c-49.4102,49.4089-116.0781,77.7451-182.9111,77.7432
		c-35.7471-0.0012-70.6133-8.2185-100.8311-23.7637c-12.292-6.3245-27.3154-3.4287-36.3779,7.0095L532.6528,1693.1606z
		 M1700.6104,1697.854l-2.7607,2.7627c-21.2822,21.2813-50.1826,32.5811-81.3936,31.814
		c-36.7217-0.9019-73.1865-18.3774-100.0869-47.9551l-449.3418-515.3081l94.4785-108.8237l522.9736,456.0259
		c29.5791,26.9019,47.0527,63.3657,47.9531,100.0864C1733.1982,1647.6602,1721.8994,1676.5654,1700.6104,1697.854z"/><path d="M693.4067 620.8496c5.8579 5.8579 13.5356 8.7869 21.2134 8.7869s15.3555-2.929 21.2134-8.7869c11.7158-11.7158 11.7158-30.7107 0-42.4263L496.0356 338.6257c-11.7158-11.7158-30.7109-11.7158-42.4268 0s-11.7158 30.7107 0 42.4265L693.4067 620.8496zM578.4199 735.8337c5.8579 5.8579 13.5356 8.7869 21.2134 8.7869s15.3555-2.929 21.2134-8.7869c11.7153-11.7156 11.7153-30.7107 0-42.4263L381.0513 453.6118c-11.7158-11.7158-30.7109-11.7158-42.4268 0-11.7153 11.7156-11.7158 30.7107 0 42.4263L578.4199 735.8337z"/></svg>