<?xml version="1.0" encoding="UTF-8"?><!DOCTYPE svg PUBLIC "-//W3C//DTD SVG 1.1//EN" "http://www.w3.org/Graphics/SVG/1.1/DTD/svg11.dtd"><svg xmlns="http://www.w3.org/2000/svg" xmlns:xlink="http://www.w3.org/1999/xlink" version="1.1" id="Ebene_1" x="0px" y="0px" width="64px" height="64px" viewBox="0 0 64 64" xml:space="preserve"><path d="M62 8H2a2 2 0 0 0-2 2v40a2 2 0 0 0 2 2h28v8h-8a2 2 0 0 0 0 4h20a2 2 0 0 0 0-4h-8v-8h28a2 2 0 0 0 2-2V10a2 2 0 0 0-2-2zm-2 40H4V12h56v36z"/><metadata><rdf:RDF xmlns:rdf="http://www.w3.org/1999/02/22-rdf-syntax-ns#" xmlns:rdfs="http://www.w3.org/2000/01/rdf-schema#" xmlns:dc="http://purl.org/dc/elements/1.1/"><rdf:Description about="https://iconscout.com/legal#licenses" dc:title="tv,monitor" dc:description="tv,monitor" dc:publisher="Iconscout" dc:date="2017-09-21" dc:format="image/svg+xml" dc:language="en"><dc:creator><rdf:Bag><rdf:li>Dario Ferrando</rdf:li></rdf:Bag></dc:creator></rdf:Description></rdf:RDF></metadata></svg>