<?xml version="1.0" encoding="UTF-8"?><!DOCTYPE svg PUBLIC "-//W3C//DTD SVG 1.1//EN" "http://www.w3.org/Graphics/SVG/1.1/DTD/svg11.dtd"><svg xmlns="http://www.w3.org/2000/svg" xmlns:xlink="http://www.w3.org/1999/xlink" version="1.1" id="Layer_1" x="0px" y="0px" width="72px" height="72px" viewBox="0 0 72 72" xml:space="preserve"><path d="M56.068 4H15.932A6.933 6.933 0 0 0 9 10.932v50.136A6.933 6.933 0 0 0 15.932 68h40.136A6.933 6.933 0 0 0 63 61.068V10.932A6.933 6.933 0 0 0 56.068 4zM15.932 8h40.136A2.932 2.932 0 0 1 59 10.932V19H13v-8.068A2.932 2.932 0 0 1 15.932 8zm40.136 56H15.932A2.932 2.932 0 0 1 13 61.068V21h46v40.068A2.931 2.931 0 0 1 56.068 64z"/><path d="M35.63 26.045c-9.029 0-16.375 7.346-16.375 16.375s7.346 16.375 16.375 16.375 16.375-7.346 16.375-16.375-7.346-16.375-16.375-16.375zm0 30.75c-7.927 0-14.375-6.447-14.375-14.375 0-7.927 6.448-14.375 14.375-14.375s14.375 6.448 14.375 14.375c0 7.928-6.448 14.375-14.375 14.375z"/><path d="M31.572 50.316a8.85 8.85 0 0 1-4.817-7.896 1 1 0 1 0-2 0c0 4.094 2.261 7.801 5.901 9.674a.998.998 0 0 0 1.347-.431 1 1 0 0 0-.431-1.347z"/><path d="M37.419 51.115a8.943 8.943 0 0 1-1.789.18 1 1 0 1 0 0 2c.74 0 1.478-.074 2.192-.221a1 1 0 0 0-.403-1.959z"/><path d="M22.63 15h2a1 1 0 1 0 0-2h-2a1 1 0 1 0 0 2z"/><path d="M16.63 15h2a1 1 0 1 0 0-2h-2a1 1 0 1 0 0 2z"/><metadata><rdf:RDF xmlns:rdf="http://www.w3.org/1999/02/22-rdf-syntax-ns#" xmlns:rdfs="http://www.w3.org/2000/01/rdf-schema#" xmlns:dc="http://purl.org/dc/elements/1.1/"><rdf:Description about="https://iconscout.com/legal#licenses" dc:title="washer" dc:description="washer" dc:publisher="Iconscout" dc:date="2017-09-14" dc:format="image/svg+xml" dc:language="en"><dc:creator><rdf:Bag><rdf:li>Taras Shypka</rdf:li></rdf:Bag></dc:creator></rdf:Description></rdf:RDF></metadata></svg>